<?xml version="1.0" encoding="utf-8"?>
<!-- Generator: Adobe Illustrator 25.4.4, SVG Export Plug-In . SVG Version: 6.00 Build 0)  -->
<svg version="1.1" id="Elements" xmlns="http://www.w3.org/2000/svg" xmlns:xlink="http://www.w3.org/1999/xlink" x="0px" y="0px"
	 viewBox="0 0 425.6 513.6" style="enable-background:new 0 0 425.6 513.6;" xml:space="preserve">
<style type="text/css">
	.st0{fill:#903FD7;}
	.st1{fill:#00ADFF;}
	.st2{fill:#7446FF;}
	.st3{opacity:0.8;}
	.st4{fill:none;}
	.st5{fill:none;stroke:#7446FF;stroke-width:2;}
	.st6{opacity:0.6;}
	.st7{opacity:0.2;}
	.st8{fill:#30B983;}
	.st9{fill:#162538;stroke:#30B983;stroke-width:12;}
	.st10{opacity:0.2;fill:#00ADFF;enable-background:new    ;}
	.st11{enable-background:new    ;}
</style>
<path id="Subtraction_4" class="st0" d="M119.8,466.7c-8,0-16-0.8-23.8-2.4c-7.6-1.6-15-3.9-22.2-6.9c-7-3-13.8-6.6-20.1-10.9
	c-6.3-4.2-12.2-9.1-17.5-14.4c-5.4-5.4-10.2-11.2-14.5-17.5s-8-13-11-20.1s-5.4-14.6-7-22.2c-1.6-7.8-2.5-15.8-2.5-23.8h44.2
	c-0.1,1.6-0.1,3.2-0.1,4.8c0,21,7.2,39,21.3,53.8c13.8,14.7,31.5,22.2,52.5,22.2c21.1,0,38.5-7.3,53.1-22.2
	c14.4-14.7,21.6-32.3,21.9-53.8c0-1.6,0-3.2-0.1-4.8h44.2c0,8-0.9,16-2.5,23.8c-1.6,7.6-3.9,15-7,22.2c-3,7-6.7,13.7-10.9,20.1
	c-4.3,6.3-9.1,12.1-14.5,17.5c-5.4,5.3-11.2,10.2-17.5,14.4c-6.3,4.3-13.1,7.9-20.1,10.9c-7.2,3-14.6,5.3-22.2,6.9
	C135.8,465.9,127.8,466.7,119.8,466.7z"/>
<g id="quote">
	<path id="Path_105" class="st1" d="M164.6,399.4c-12.4,12.7-27.5,18.9-45.3,18.9s-32.9-6.2-44.8-18.9c-12.2-12.7-18.1-28-18.1-45.9
		c0-17.4,6-32.1,18.1-44.6s26.9-18.7,44.8-18.7s32.9,6.2,45.3,18.7c12.4,12.4,18.7,27.2,18.7,44.6
		C183,371.6,177.1,386.7,164.6,399.4z"/>
	<path id="Path_106" class="st2" d="M96,380.7c-7.3-8.3-10.9-18.9-10.9-32.1c0-11.7,2.9-24.1,8.3-37.3c5.4-13.2,13.2-25.4,23.1-37.1
		c9.5-11.1,20.5-20.8,32.6-28.8l14.8,30.8c-8.5,7.3-30.6,33.2-21.5,50c2.6,4.9,5.7,5.4,10.9,13.5c3.4,5.2,4.4,11.1,4.4,16.6
		c-0.1,5.9-1.7,11.7-4.7,16.8c-3.1,5.7-7.4,10.5-12.7,14.2s-11.5,5.6-17.9,5.7C112,393.1,103.2,389,96,380.7z"/>
</g>
<g id="Group_47" transform="translate(715 214.43)" class="st3">
	<g id="Rectangle_16">
		<rect x="-450.7" y="-53.1" class="st4" width="40" height="304.7"/>
		<rect x="-449.7" y="-52.1" class="st5" width="38" height="302.7"/>
	</g>
	<g id="rectangle1" transform="translate(0 34)">
		<rect x="-450.7" y="-53.1" class="st2" width="40" height="153.3"/>
		<rect x="-449.7" y="-52.1" class="st5" width="38" height="151.3"/>
	</g>
</g>
<g id="Group_45" transform="translate(-545 -185.337)" class="st6">
	<g id="Rectangle_18" transform="translate(1320 399.767)">
		<rect x="-450.7" y="-53.1" class="st4" width="40" height="305.3"/>
		<rect x="-449.7" y="-52.1" class="st5" width="38" height="303.3"/>
	</g>
	<g id="rectangle2" transform="translate(1320 490.93)">
		<rect x="-450.7" y="-53.1" class="st2" width="40" height="123"/>
		<rect x="-449.7" y="-52.1" class="st5" width="38" height="121"/>
	</g>
</g>
<g id="Group_46" transform="translate(835 214.43)" class="st7">
	<g id="Rectangle_20">
		<rect x="-450.7" y="-53.1" class="st4" width="40" height="305.3"/>
		<rect x="-449.7" y="-52.1" class="st5" width="38" height="303.3"/>
	</g>
	<g id="rectangle3" transform="translate(0 1.032)">
		<rect x="-450.7" y="-53.1" class="st2" width="40" height="90"/>
		<rect x="-449.7" y="-52.1" class="st5" width="38" height="88"/>
	</g>
</g>
<path id="circlesmall" class="st0" d="M394.6,435.4c-4.4,4.6-10.5,7.2-16.9,7c-6.3,0.2-12.4-2.4-16.7-7c-4.4-4.6-6.9-10.7-6.7-17.1
	c-0.1-6.2,2.3-12.2,6.7-16.6c4.3-4.6,10.4-7.1,16.7-6.9c6.3-0.1,12.4,2.4,16.9,6.9c4.5,4.3,7,10.3,6.9,16.6
	C401.6,424.8,399.1,430.9,394.6,435.4z"/>
<path id="dot10" class="st8" d="M407.3,137.7c1.9,2,4.4,3,7.1,3c2.7,0.1,5.2-1,7.1-3c1.9-1.9,2.9-4.5,2.9-7.2c0-2.6-1-5.2-2.9-7
	c-1.8-1.9-4.4-3-7.1-2.9c-2.7-0.1-5.3,1-7.1,2.9c-1.9,1.8-3,4.4-2.9,7C404.3,133.2,405.3,135.8,407.3,137.7z"/>
<path id="dot8_00000177469647130409390990000006102510366896936580_" class="st8" d="M360.2,97.7c1.9,2,4.4,3,7.1,3
	c2.7,0.1,5.2-1,7.1-3c1.9-1.9,2.9-4.5,2.9-7.2c0-2.6-1-5.2-2.9-7c-1.8-1.9-4.4-3-7.1-2.9c-2.7-0.1-5.3,1-7.1,2.9
	c-1.9,1.8-3,4.4-2.9,7C357.3,93.2,358.3,95.8,360.2,97.7z"/>
<path id="dot5" class="st8" d="M314.3,57.7c1.9,2,4.4,3,7.1,3c2.7,0.1,5.2-1,7.1-3c1.9-1.9,2.9-4.5,2.9-7.2c0-2.6-1-5.2-2.9-7
	c-1.8-1.9-4.4-3-7.1-2.9c-2.7-0.1-5.3,1-7.1,2.9c-1.9,1.8-3,4.4-2.9,7C311.3,53.2,312.3,55.8,314.3,57.7z"/>
<path id="dot1" class="st8" d="M267.2,17.7c1.9,2,4.4,3,7.1,3c2.7,0.1,5.2-1,7.1-3c1.9-1.9,2.9-4.5,2.9-7.2c0-2.6-1-5.2-2.9-7
	c-1.8-1.9-4.4-3-7.1-2.9c-2.7-0.1-5.3,1-7.1,2.9c-1.9,1.8-3,4.4-2.9,7C264.3,13.2,265.3,15.8,267.2,17.7z"/>
<path id="dot9" class="st8" d="M360.3,137.7c1.9,2,4.4,3,7.1,3c2.7,0.1,5.2-1,7.1-3c1.9-1.9,2.9-4.5,2.9-7.2c0-2.6-1-5.2-2.9-7
	c-1.8-1.9-4.4-3-7.1-2.9c-2.7-0.1-5.3,1-7.1,2.9c-1.9,1.8-3,4.4-2.9,7C357.3,133.2,358.3,135.8,360.3,137.7z"/>
<path id="dot6" class="st8" d="M313.2,97.7c1.9,2,4.4,3,7.1,3c2.7,0.1,5.2-1,7.1-3c1.9-1.9,2.9-4.5,2.9-7.2c0-2.6-1-5.2-2.9-7
	c-1.8-1.9-4.4-3-7.1-2.9c-2.7-0.1-5.3,1-7.1,2.9c-1.9,1.8-3,4.4-2.9,7C310.3,93.2,311.3,95.8,313.2,97.7z"/>
<path id="dot2" class="st8" d="M267.3,57.7c1.9,2,4.4,3,7.1,3c2.7,0.1,5.2-1,7.1-3c1.9-1.9,2.9-4.5,2.9-7.2c0-2.6-1-5.2-2.9-7
	c-1.8-1.9-4.4-3-7.1-2.9c-2.7-0.1-5.3,1-7.1,2.9c-1.9,1.8-3,4.4-2.9,7C264.3,53.2,265.3,55.8,267.3,57.7z"/>
<path id="dot7_00000067935806941561214730000009595478972388836736_" class="st8" d="M314.3,137.7c1.9,2,4.4,3,7.1,3
	c2.7,0.1,5.2-1,7.1-3c1.9-1.9,2.9-4.5,2.9-7.2c0-2.6-1-5.2-2.9-7c-1.8-1.9-4.4-3-7.1-2.9c-2.7-0.1-5.3,1-7.1,2.9
	c-1.9,1.8-3,4.4-2.9,7C311.3,133.2,312.3,135.8,314.3,137.7z"/>
<path id="dot3" class="st8" d="M267.2,97.7c1.9,2,4.4,3,7.1,3c2.7,0.1,5.2-1,7.1-3c1.9-1.9,2.9-4.5,2.9-7.2c0-2.6-1-5.2-2.9-7
	c-1.8-1.9-4.4-3-7.1-2.9c-2.7-0.1-5.3,1-7.1,2.9c-1.9,1.8-3,4.4-2.9,7C264.3,93.2,265.3,95.8,267.2,97.7z"/>
<path id="dot4" class="st8" d="M267.3,137.7c1.9,2,4.4,3,7.1,3c2.7,0.1,5.2-1,7.1-3c1.9-1.9,2.9-4.5,2.9-7.2c0-2.6-1-5.2-2.9-7
	c-1.8-1.9-4.4-3-7.1-2.9c-2.7-0.1-5.3,1-7.1,2.9c-1.9,1.8-3,4.4-2.9,7C264.3,133.2,265.3,135.8,267.3,137.7z"/>
<path id="circlebig" class="st9" d="M322.5,496c-7,7.4-16.9,11.5-27.1,11.3c-10.7,0-19.6-3.7-26.8-11.3c-7.1-7.3-11-17.2-10.8-27.4
	c-0.2-10,3.7-19.6,10.8-26.6c7-7.3,16.7-11.4,26.8-11.1c10.2-0.2,20,3.8,27.1,11.1c7.2,6.9,11.3,16.6,11.1,26.6
	C333.5,479.4,330,488.4,322.5,496z"/>
<path id="triangle" class="st10" d="M33.8,177.7l32.5,56h-65L33.8,177.7z"/>
<path id="ftriangle" class="st10" d="M106.2,138.7l32.5,56h-65L106.2,138.7z"/>
<g id="bracket" class="st11">
	<path class="st8" d="M206.5,110.7V88.1c0-9.8-4.7-11.3-12.8-10.9V61.8c8.1,0.4,12.8-1,12.8-10.9V28.3c0-18.4,9.7-27.6,29.4-26.2
		v15.3c-8.8-1-13.5,1-13.5,10.9v22.6c0,9.8-3.2,15.6-9.6,18.5c6.3,3.1,9.6,8.8,9.6,18.7v22.6c0,9.8,4.7,11.9,13.5,11V137
		C216.2,138.5,206.5,129.3,206.5,110.7z"/>
</g>
</svg>
