<?xml version="1.0" encoding="utf-8"?>
<!-- Generator: Adobe Illustrator 25.4.4, SVG Export Plug-In . SVG Version: 6.00 Build 0)  -->
<svg version="1.1" id="logo" xmlns="http://www.w3.org/2000/svg" xmlns:xlink="http://www.w3.org/1999/xlink" x="0px" y="0px"
	 viewBox="0 0 313.9 206.4" style="enable-background:new 0 0 313.9 206.4;" xml:space="preserve">
<style type="text/css">
	.st0{fill:#7446FF;}
	.st1{fill:#FFFFFF;}
</style>
<g id="dot">
	<path id="dot-2" class="st0" d="M240.3,71.6c-2.9,3-7,4.8-11.2,4.7c-4.2,0.1-8.2-1.6-11.1-4.7c-3-3-4.6-7.1-4.5-11.3
		c-0.1-4.1,1.6-8.1,4.5-11c2.9-3,6.9-4.7,11.1-4.6c4.2-0.1,8.3,1.6,11.2,4.6c3,2.9,4.7,6.9,4.6,11C244.9,64.5,243.3,68.6,240.3,71.6
		z"/>
</g>
<g id="comma">
	<path id="comma-2" class="st0" d="M241,100.5c3.3,3.7,4.9,8.5,4.9,14.3c-0.1,5.8-1.3,11.4-3.7,16.7c-2.5,6-6,11.6-10.3,16.5
		c-4.3,5-9.2,9.3-14.7,12.9l-6.6-13.8c3.8-3.2,13.7-14.8,9.6-22.4c-1.1-2.2-2.6-2.4-4.8-6c-1.4-2.2-2-4.8-2-7.4
		c0-2.7,0.8-5.3,2.1-7.6c1.3-2.5,3.3-4.7,5.7-6.3c2.3-1.7,5.1-2.5,8-2.5C233.8,94.9,238.1,97,241,100.5z"/>
</g>
<g id="a">
	<g id="a-2">
		<path class="st0" d="M180.1,102.5c0,7.6-2.1,15.2-6.3,23c-4.2,7.8-10.1,14.4-17.4,19.4c-7.1,5.1-15.7,7.7-24.4,7.7
			c-13.8,0-25.7-5.7-35.7-17s-15-25.9-15-43.7c0.1-9.9,1.4-19.7,3.9-29.3H160c3.4,5.6,7.6,7,14.1,17.3
			C178.7,87,180.1,94.9,180.1,102.5z"/>
		<path class="st1" d="M189.8,46v114.5h-24.7V144c-8.7,12.1-22.2,19.4-40.1,19.4c-31.1,0-57-26.3-57-60.2C68,69.1,93.9,43,125,43
			c17.9,0,31.4,7.3,40.1,19.2V46H189.8z M165.1,103.2c0-21.3-15.6-36.6-36.2-36.6s-36.2,15.3-36.2,36.6s15.6,36.6,36.2,36.6
			S165.1,124.5,165.1,103.2z"/>
	</g>
</g>
</svg>
