<?xml version="1.0" encoding="utf-8"?>
<!-- Generator: Adobe Illustrator 25.4.4, SVG Export Plug-In . SVG Version: 6.00 Build 0)  -->
<svg version="1.1" id="Layer_1" xmlns="http://www.w3.org/2000/svg" xmlns:xlink="http://www.w3.org/1999/xlink" x="0px" y="0px"
	 viewBox="0 0 501.4 340.1" style="enable-background:new 0 0 501.4 340.1;" xml:space="preserve">
<style type="text/css">
	.st0{fill:#1E334D;}
</style>
<g id="Group_43" transform="translate(-834.574 -5137.63)">
	<path id="Path_86" class="st0" d="M1150.5,5305.6c0,21.2-5.9,42.8-17.8,64.7c-11.7,21.7-28.4,40.4-48.8,54.4
		c-20.7,14.4-43.5,21.6-68.5,21.6c-38.7,0-72.2-16-100.4-47.9c-28.1-31.9-42.2-72.8-42.2-122.9c0-26.5,3.7-53.9,11-82.3H1094
		c9.5,15.8,21.4,19.7,39.6,48.6C1146.4,5262.2,1150.5,5284.3,1150.5,5305.6"/>
	<path id="Path_87" class="st0" d="M1177.6,5146.8v321.7h-69.5v-46.3c-24.5,34.1-62.4,54.7-112.6,54.7c-87.5,0-160.2-74-160.2-169.2
		c0-95.9,72.7-169.2,160.2-169.2c50.2,0,88.2,20.6,112.6,54v-45.7H1177.6z M1108.1,5307.7c0-59.8-43.8-103-101.7-103
		s-101.7,43.1-101.7,103c0,59.8,43.8,102.9,101.7,102.9S1108.1,5367.5,1108.1,5307.7"/>
	<path id="Path_88" class="st0" d="M1319.5,5218.9c-8.6,8.8-19.1,13.2-31.5,13.2c-12.4,0-22.8-4.4-31.2-13.2
		c-8.4-8.8-12.6-19.4-12.6-31.8c-0.2-11.6,4.4-22.7,12.6-30.9c8.4-8.6,18.8-12.9,31.2-12.9c12.4,0,22.9,4.3,31.5,12.9
		c8.6,8.6,12.9,18.9,12.9,30.9C1332.4,5199.5,1328.1,5210.1,1319.5,5218.9"/>
	<path id="Path_89" class="st0" d="M1321.4,5300.1c9.2,10.5,13.8,23.9,13.8,40.3c0,14.8-3.5,30.4-10.5,47
		c-7.2,16.9-16.9,32.6-28.9,46.4c-11.9,14-25.8,26.2-41.2,36.3l-18.4-38.7c10.7-9,38.4-41.7,27.1-63c-3.2-6.1-7.2-6.9-13.5-16.9
		c-4.2-6.7-5.5-13.9-5.5-20.9s1.9-14,5.8-21.2c3.9-7.1,9.3-13.2,16-17.8c6.6-4.6,14.4-7.1,22.4-7.1
		C1301.2,5284.4,1312.2,5289.6,1321.4,5300.1"/>
</g>
</svg>
