<?xml version="1.0" encoding="utf-8"?>
<!-- Generator: Adobe Illustrator 25.4.4, SVG Export Plug-In . SVG Version: 6.00 Build 0)  -->
<svg version="1.1" id="logo" xmlns="http://www.w3.org/2000/svg" xmlns:xlink="http://www.w3.org/1999/xlink" x="0px" y="0px"
	 viewBox="0 0 181.1 125.6" style="enable-background:new 0 0 181.1 125.6;" xml:space="preserve">
<style type="text/css">
	.st0{fill:#7446FF;}
</style>
<g>
	<path class="st0" d="M113.5,62.1c0,7.6-2.1,15.2-6.3,23c-4.2,7.8-10,14.2-17.4,19.4c-7.3,5.1-15.5,7.7-24.4,7.7
		c-13.8,0-25.7-5.7-35.7-17s-15-25.9-15-43.7c0-9.4,1.3-19.2,3.9-29.3h74.8c3.4,5.6,7.6,7,14.1,17.3
		C112.1,46.6,113.5,54.5,113.5,62.1z"/>
	<path class="st0" d="M123.2,5.6v114.5H98.5v-16.5C89.8,115.7,76.3,123,58.4,123c-31.1,0-57-26.3-57-60.2c0-34.1,25.9-60.2,57-60.2
		c17.9,0,31.4,7.3,40.1,19.2V5.6H123.2z M98.5,62.8c0-21.3-15.6-36.6-36.2-36.6S26.1,41.5,26.1,62.8s15.6,36.6,36.2,36.6
		S98.5,84.1,98.5,62.8z"/>
	<path class="st0" d="M173.7,31.2c-3.1,3.1-6.8,4.7-11.2,4.7s-8.1-1.6-11.1-4.7s-4.5-6.9-4.5-11.3c0-4.3,1.5-7.9,4.5-11
		s6.7-4.6,11.1-4.6c4.4,0,8.1,1.5,11.2,4.6c3.1,3.1,4.6,6.7,4.6,11C178.3,24.3,176.7,28.1,173.7,31.2z"/>
	<path class="st0" d="M174.4,60.1c3.3,3.7,4.9,8.5,4.9,14.3c0,5.3-1.2,10.8-3.7,16.7s-5.9,11.4-10.3,16.5
		c-4.4,5.1-9.3,9.4-14.7,12.9l-6.6-13.8c3.8-3.2,13.7-14.8,9.6-22.4c-1.1-2.2-2.6-2.4-4.8-6c-1.5-2.4-2-5-2-7.4c0-2.5,0.7-5,2.1-7.6
		c1.4-2.6,3.3-4.7,5.7-6.3c2.4-1.7,5.1-2.5,8-2.5C167.2,54.5,171.1,56.4,174.4,60.1z"/>
</g>
</svg>
